<svg id="Capa_1" data-name="Capa 1" xmlns="http://www.w3.org/2000/svg" width="288.7" height="133.1" viewBox="0 0 288.7 133.1"><defs><style>.cls-1{fill:#0f69b4;}.cls-2{fill:#eb3c46;}.cls-3{fill:#fff;}</style></defs><title>logo-home</title><rect class="cls-1" x="0.6" width="118" height="31.4"/><rect class="cls-2" x="118.6" width="170" height="31.4"/><path class="cls-3" d="M.3,66.2a5.26,5.26,0,0,1,5.4-5.4A4.94,4.94,0,0,1,10.6,64l-1.2.3A3.9,3.9,0,0,0,5.6,62a4.35,4.35,0,0,0,0,8.7,4,4,0,0,0,3.8-2.3l1.1.3a4.94,4.94,0,0,1-4.9,3.2A5.69,5.69,0,0,1,.3,66.2Z"/><path class="cls-3" d="M11.8,67.7a3.7,3.7,0,0,1,3.8-3.9,3.62,3.62,0,0,1,3.8,3.8v.5H13a2.56,2.56,0,0,0,2.8,2.5,2.66,2.66,0,0,0,2.5-1.5l1.1.3a3.68,3.68,0,0,1-3.5,2.2A3.78,3.78,0,0,1,11.8,67.7Zm6.5-.5a2.42,2.42,0,0,0-2.6-2.4A2.64,2.64,0,0,0,13,67.2Z"/><path class="cls-3" d="M28.1,67v4.4H26.9V67.2c0-1.5-.7-2.4-2.1-2.4a2.5,2.5,0,0,0-2.5,2.8v3.8H21.1V64h1.2v1.3a3.08,3.08,0,0,1,2.8-1.5C27,63.8,28.1,65,28.1,67Z"/><path class="cls-3" d="M34.7,71.2a4.15,4.15,0,0,1-1.6.3c-1.5,0-2.2-.9-2.2-2.4V65H29.4V64h1.5V61.4h1.2V64h2.6v1H32.1v4.2c0,.8.4,1.3,1.2,1.3a2.28,2.28,0,0,0,1.1-.3Z"/><path class="cls-3" d="M40.2,63.9V65c-1.6-.2-2.7.6-2.7,3v3.5H36.3V64h1.2v1.3A2.42,2.42,0,0,1,40.2,63.9Z"/><path class="cls-3" d="M40.7,67.7a3.87,3.87,0,0,1,4-3.9,3.78,3.78,0,0,1,3.9,3.9,4,4,0,0,1-7.9,0Zm6.8,0a2.82,2.82,0,0,0-2.8-2.9,2.76,2.76,0,0,0-2.8,2.9,2.8,2.8,0,1,0,5.6,0Z"/><path class="cls-3" d="M61.7,60.5V71.4H60.5V70a3.29,3.29,0,0,1-3,1.6,3.9,3.9,0,0,1,0-7.8,3.56,3.56,0,0,1,3,1.5V60.5Zm-1.1,7.2a2.82,2.82,0,0,0-2.8-2.9A2.76,2.76,0,0,0,55,67.7a2.8,2.8,0,1,0,5.6,0Z"/><path class="cls-3" d="M63.5,67.7a3.7,3.7,0,0,1,3.8-3.9,3.62,3.62,0,0,1,3.8,3.8v.5H64.7a2.56,2.56,0,0,0,2.8,2.5A2.66,2.66,0,0,0,70,69.1l1.1.3a3.68,3.68,0,0,1-3.5,2.2C65.1,71.6,63.5,70.1,63.5,67.7Zm6.4-.5a2.42,2.42,0,0,0-2.6-2.4,2.64,2.64,0,0,0-2.7,2.4Z"/><path class="cls-3" d="M84.8,64.3a3.39,3.39,0,0,1-3.5,3.4H77.9v3.7H76.7V60.9h4.6A3.39,3.39,0,0,1,84.8,64.3Zm-1.2,0A2.26,2.26,0,0,0,81.3,62H77.9v4.6h3.4A2.26,2.26,0,0,0,83.6,64.3Z"/><path class="cls-3" d="M85.5,67.7a3.7,3.7,0,0,1,3.8-3.9,3.62,3.62,0,0,1,3.8,3.8v.5H86.7a2.56,2.56,0,0,0,2.8,2.5A2.66,2.66,0,0,0,92,69.1l1.1.3a3.68,3.68,0,0,1-3.5,2.2C87.1,71.6,85.5,70.1,85.5,67.7Zm6.4-.5a2.42,2.42,0,0,0-2.6-2.4,2.64,2.64,0,0,0-2.7,2.4Z"/><path class="cls-3" d="M98.6,63.9V65c-1.6-.2-2.7.6-2.7,3v3.5H94.7V64H96v1.3A2.23,2.23,0,0,1,98.6,63.9Z"/><path class="cls-3" d="M102.1,64h2.7v1h-2.7v6.4H101V65H99.4V64H101V63c0-1.7.8-2.7,2.4-2.7a3.34,3.34,0,0,1,1.5.3l-.3,1a2,2,0,0,0-1.1-.3c-.9,0-1.3.6-1.3,1.7v1Z"/><path class="cls-3" d="M105,67.7a3.7,3.7,0,0,1,3.8-3.9,3.62,3.62,0,0,1,3.8,3.8v.5h-6.4a2.56,2.56,0,0,0,2.8,2.5,2.66,2.66,0,0,0,2.5-1.5l1.1.3a3.68,3.68,0,0,1-3.5,2.2C106.6,71.6,105,70.1,105,67.7Zm6.4-.5a2.42,2.42,0,0,0-2.6-2.4,2.64,2.64,0,0,0-2.7,2.4Z"/><path class="cls-3" d="M113.8,67.7a3.78,3.78,0,0,1,3.9-3.9,3.54,3.54,0,0,1,3.5,2.3l-1.1.3a2.41,2.41,0,0,0-2.4-1.5,2.76,2.76,0,0,0-2.8,2.9,2.82,2.82,0,0,0,2.8,2.9,2.51,2.51,0,0,0,2.4-1.5l1.1.3a3.45,3.45,0,0,1-3.5,2.3A4.15,4.15,0,0,1,113.8,67.7Z"/><path class="cls-3" d="M122.5,67.7a3.78,3.78,0,0,1,3.9-3.9,3.54,3.54,0,0,1,3.5,2.3l-1.1.3a2.41,2.41,0,0,0-2.4-1.5,2.76,2.76,0,0,0-2.8,2.9,2.82,2.82,0,0,0,2.8,2.9,2.51,2.51,0,0,0,2.4-1.5l1.1.3a3.45,3.45,0,0,1-3.5,2.3A4.08,4.08,0,0,1,122.5,67.7Z"/><path class="cls-3" d="M131.5,61.8a.79.79,0,0,1,.8-.8.8.8,0,1,1,0,1.6A.79.79,0,0,1,131.5,61.8Zm.2,2.2h1.2v7.5h-1.2Z"/><path class="cls-3" d="M134.7,67.7a3.87,3.87,0,0,1,4-3.9,3.78,3.78,0,0,1,3.9,3.9,4,4,0,0,1-7.9,0Zm6.7,0a2.82,2.82,0,0,0-2.8-2.9,2.76,2.76,0,0,0-2.8,2.9,2.8,2.8,0,1,0,5.6,0Z"/><path class="cls-3" d="M151.3,67v4.4h-1.2V67.2c0-1.5-.7-2.4-2.1-2.4a2.5,2.5,0,0,0-2.5,2.8v3.8h-1.2V64h1.2v1.3a3.08,3.08,0,0,1,2.8-1.5A2.89,2.89,0,0,1,151.3,67Z"/><path class="cls-3" d="M153,67.7a3.76,3.76,0,0,1,3.8-3.9,3.56,3.56,0,0,1,3,1.5V64H161v7.5h-1.2V70.1a3.29,3.29,0,0,1-3,1.6A3.91,3.91,0,0,1,153,67.7Zm6.7,0a2.82,2.82,0,0,0-2.8-2.9,2.7,2.7,0,0,0-2.8,2.9,2.82,2.82,0,0,0,2.8,2.9A2.76,2.76,0,0,0,159.7,67.7Z"/><path class="cls-3" d="M174.8,66.9v4.5h-1.2V67.1c0-1.4-.6-2.3-2-2.3s-2.1,1-2.1,2.6v4h-1.2V67.1c0-1.4-.6-2.3-1.8-2.3s-2.2,1.1-2.2,2.8v3.8h-1.2V64h1.2v1.2a2.82,2.82,0,0,1,2.5-1.4,2.49,2.49,0,0,1,2.4,1.4,2.93,2.93,0,0,1,2.7-1.4A2.79,2.79,0,0,1,174.8,66.9Z"/><path class="cls-3" d="M176.8,61.8a.79.79,0,0,1,.8-.8.8.8,0,0,1,0,1.6A.79.79,0,0,1,176.8,61.8ZM177,64h1.2v7.5H177Z"/><path class="cls-3" d="M180,67.7a3.7,3.7,0,0,1,3.8-3.9,3.62,3.62,0,0,1,3.8,3.8v.5h-6.4a2.56,2.56,0,0,0,2.8,2.5,2.66,2.66,0,0,0,2.5-1.5l1.1.3a3.68,3.68,0,0,1-3.5,2.2C181.6,71.6,180,70.1,180,67.7Zm6.4-.5a2.42,2.42,0,0,0-2.6-2.4,2.64,2.64,0,0,0-2.7,2.4Z"/><path class="cls-3" d="M196.2,67v4.4H195V67.2c0-1.5-.7-2.4-2.1-2.4a2.5,2.5,0,0,0-2.5,2.8v3.8h-1.2V64h1.2v1.3a3.08,3.08,0,0,1,2.8-1.5C195.1,63.8,196.2,65,196.2,67Z"/><path class="cls-3" d="M202.8,71.2a4.15,4.15,0,0,1-1.6.3c-1.5,0-2.2-.9-2.2-2.4V65h-1.5V64H199V61.4h1.2V64h2.6v1h-2.6v4.2c0,.8.4,1.3,1.2,1.3a2.28,2.28,0,0,0,1.1-.3Z"/><path class="cls-3" d="M203.6,67.7a3.87,3.87,0,0,1,4-3.9,3.78,3.78,0,0,1,3.9,3.9,4,4,0,0,1-7.9,0Zm6.8,0a2.82,2.82,0,0,0-2.8-2.9,2.76,2.76,0,0,0-2.8,2.9,2.8,2.8,0,1,0,5.6,0Z"/><path class="cls-3" d="M213.2,69.9h1.3l-1,3.6h-1Z"/><path class="cls-3" d="M2,80v3.5H7.4v1.1H2v3.7H8.2v1.1H.8V78.9H8.2V80Z"/><path class="cls-3" d="M15.3,89.4l-2.4-3-2.4,3H9.2l3-3.8L9.3,82h1.4L13,84.9,15.2,82h1.4l-2.8,3.7,3,3.8H15.3Z"/><path class="cls-3" d="M25.8,85.7A3.76,3.76,0,0,1,22,89.6,3.4,3.4,0,0,1,19,88v4.5H18V82h1.2v1.3a3.43,3.43,0,0,1,3-1.5A3.66,3.66,0,0,1,25.8,85.7Zm-1.1,0a2.76,2.76,0,0,0-2.8-2.9,2.82,2.82,0,0,0-2.8,2.9,2.88,2.88,0,0,0,2.8,2.9A2.76,2.76,0,0,0,24.7,85.7Z"/><path class="cls-3" d="M27.1,85.7a3.7,3.7,0,0,1,3.8-3.9,3.62,3.62,0,0,1,3.8,3.8v.5H28.3a2.56,2.56,0,0,0,2.8,2.5,2.66,2.66,0,0,0,2.5-1.5l1.1.3a3.68,3.68,0,0,1-3.5,2.2A3.78,3.78,0,0,1,27.1,85.7Zm6.5-.5A2.42,2.42,0,0,0,31,82.8a2.64,2.64,0,0,0-2.7,2.4Z"/><path class="cls-3" d="M40.3,81.9V83c-1.6-.2-2.7.6-2.7,3v3.5H36.4V82h1.2v1.3A2.42,2.42,0,0,1,40.3,81.9Z"/><path class="cls-3" d="M41.6,79.8a.79.79,0,0,1,.8-.8.8.8,0,0,1,0,1.6A.86.86,0,0,1,41.6,79.8Zm.2,2.2H43v7.5H41.8Z"/><path class="cls-3" d="M56.9,84.9v4.5H55.7V85.1c0-1.4-.6-2.3-1.9-2.3s-2.1,1-2.1,2.6v4H50.5V85.1c0-1.4-.6-2.3-1.8-2.3s-2.2,1.1-2.2,2.8v3.8H45.3V82h1.2v1.2A2.82,2.82,0,0,1,49,81.8a2.49,2.49,0,0,1,2.4,1.4,2.93,2.93,0,0,1,2.7-1.4C55.8,81.8,56.9,82.9,56.9,84.9Z"/><path class="cls-3" d="M58.6,85.7a3.7,3.7,0,0,1,3.8-3.9,3.62,3.62,0,0,1,3.8,3.8v.5H59.8a2.56,2.56,0,0,0,2.8,2.5,2.66,2.66,0,0,0,2.5-1.5l1.1.3a3.68,3.68,0,0,1-3.5,2.2A3.78,3.78,0,0,1,58.6,85.7Zm6.5-.5a2.42,2.42,0,0,0-2.6-2.4,2.64,2.64,0,0,0-2.7,2.4Z"/><path class="cls-3" d="M74.9,85v4.4H73.7V85.2c0-1.5-.7-2.4-2.1-2.4a2.5,2.5,0,0,0-2.5,2.8v3.8H68V82h1.2v1.3A3.08,3.08,0,0,1,72,81.8C73.8,81.8,74.9,83,74.9,85Z"/><path class="cls-3" d="M81.5,89.2a4.15,4.15,0,0,1-1.6.3c-1.5,0-2.2-.9-2.2-2.4V83H76.2V82h1.5V79.4h1.2V82h2.6v1H78.9v4.2c0,.8.4,1.3,1.2,1.3a2.28,2.28,0,0,0,1.1-.3Z"/><path class="cls-3" d="M82.3,85.7a3.76,3.76,0,0,1,3.8-3.9,3.56,3.56,0,0,1,3,1.5V82h1.2v7.5H89V88.1a3.29,3.29,0,0,1-3,1.6A3.89,3.89,0,0,1,82.3,85.7Zm6.7,0a2.82,2.82,0,0,0-2.8-2.9,2.76,2.76,0,0,0-2.8,2.9,2.82,2.82,0,0,0,2.8,2.9A2.76,2.76,0,0,0,89,85.7Z"/><path class="cls-3" d="M91.9,85.7a3.78,3.78,0,0,1,3.9-3.9,3.54,3.54,0,0,1,3.5,2.3l-1.1.3a2.41,2.41,0,0,0-2.4-1.5A2.76,2.76,0,0,0,93,85.8a2.82,2.82,0,0,0,2.8,2.9,2.51,2.51,0,0,0,2.4-1.5l1.1.3a3.45,3.45,0,0,1-3.5,2.3A4.15,4.15,0,0,1,91.9,85.7Z"/><path class="cls-3" d="M100.9,79.8a.79.79,0,0,1,.8-.8.8.8,0,0,1,0,1.6A.79.79,0,0,1,100.9,79.8Zm.2,2.2h1.2v7.5h-1.2Z"/><path class="cls-3" d="M104.1,85.7a3.87,3.87,0,0,1,4-3.9,3.78,3.78,0,0,1,3.9,3.9,4,4,0,0,1-7.9,0Zm6.8,0a2.82,2.82,0,0,0-2.8-2.9,2.76,2.76,0,0,0-2.8,2.9,2.8,2.8,0,1,0,5.6,0Zm-2.3-7h1.3l-1.5,2h-1.1Z"/><path class="cls-3" d="M120.7,85v4.4h-1.2V85.2c0-1.5-.7-2.4-2.1-2.4a2.5,2.5,0,0,0-2.5,2.8v3.8h-1.2V82h1.2v1.3a3.08,3.08,0,0,1,2.8-1.5C119.6,81.8,120.7,83,120.7,85Z"/><path class="cls-3" d="M126.3,85.7a3.7,3.7,0,0,1,3.8-3.9,3.62,3.62,0,0,1,3.8,3.8v.5h-6.4a2.56,2.56,0,0,0,2.8,2.5,2.66,2.66,0,0,0,2.5-1.5l1.1.3a3.68,3.68,0,0,1-3.5,2.2C127.9,89.6,126.3,88.1,126.3,85.7Zm6.4-.5a2.42,2.42,0,0,0-2.6-2.4,2.64,2.64,0,0,0-2.7,2.4Z"/><path class="cls-3" d="M139.5,78.9h1.2V89.4h-1.2Z"/><path class="cls-3" d="M149.9,85v4.4h-1.2V85.2c0-1.5-.7-2.4-2.1-2.4a2.5,2.5,0,0,0-2.5,2.8v3.8h-1.2V82h1.2v1.3a3.08,3.08,0,0,1,2.8-1.5A2.89,2.89,0,0,1,149.9,85Z"/><path class="cls-3" d="M158.5,82l-3.3,7.5H154L150.7,82h1.2l2.7,6.2,2.6-6.2Z"/><path class="cls-3" d="M159,85.7a3.7,3.7,0,0,1,3.8-3.9,3.62,3.62,0,0,1,3.8,3.8v.5h-6.4a2.56,2.56,0,0,0,2.8,2.5,2.66,2.66,0,0,0,2.5-1.5l1.1.3a3.68,3.68,0,0,1-3.5,2.2A3.78,3.78,0,0,1,159,85.7Zm6.5-.5a2.42,2.42,0,0,0-2.6-2.4,2.64,2.64,0,0,0-2.7,2.4Z"/><path class="cls-3" d="M167.7,87.4l1.1-.3a2.45,2.45,0,0,0,2.4,1.6c1.1,0,1.9-.6,1.9-1.2s-.3-.9-1.1-1.1l-2.1-.6c-.9-.3-1.7-.8-1.7-1.8a2.5,2.5,0,0,1,2.7-2.1,3.33,3.33,0,0,1,3.2,1.9l-1,.3a2.27,2.27,0,0,0-2.1-1.2c-1,0-1.6.6-1.6,1.1s.4.7,1,.9l2.1.6c1,.3,1.8.8,1.8,2s-1.3,2.3-3,2.3A4,4,0,0,1,167.7,87.4Z"/><path class="cls-3" d="M180.3,89.2a4.15,4.15,0,0,1-1.6.3c-1.5,0-2.2-.9-2.2-2.4V83H175V82h1.5V79.4h1.2V82h2.6v1h-2.6v4.2c0,.8.4,1.3,1.2,1.3a2.28,2.28,0,0,0,1.1-.3Z"/><path class="cls-3" d="M181.8,79.8a.79.79,0,0,1,.8-.8.8.8,0,1,1,0,1.6A.79.79,0,0,1,181.8,79.8Zm.3,2.2h1.2v7.5h-1.2Z"/><path class="cls-3" d="M192.9,82v7.2a3.49,3.49,0,0,1-3.7,3.6,3.85,3.85,0,0,1-3.6-2l1-.4a2.56,2.56,0,0,0,2.5,1.3,2.39,2.39,0,0,0,2.5-2.6V87.8a3.3,3.3,0,0,1-2.9,1.4,3.74,3.74,0,0,1-3.8-3.8,3.68,3.68,0,0,1,3.8-3.8,3.3,3.3,0,0,1,2.9,1.4V82Zm-1.1,3.6a2.8,2.8,0,1,0-2.8,2.7A2.78,2.78,0,0,0,191.8,85.6Z"/><path class="cls-3" d="M194.7,85.7a3.76,3.76,0,0,1,3.8-3.9,3.56,3.56,0,0,1,3,1.5V82h1.2v7.5h-1.2V88.1a3.29,3.29,0,0,1-3,1.6A3.91,3.91,0,0,1,194.7,85.7Zm6.7,0a2.82,2.82,0,0,0-2.8-2.9,2.7,2.7,0,0,0-2.8,2.9,2.82,2.82,0,0,0,2.8,2.9A2.76,2.76,0,0,0,201.4,85.7Z"/><path class="cls-3" d="M204.3,85.7a3.84,3.84,0,0,1,3.9-3.9,3.54,3.54,0,0,1,3.5,2.3l-1.1.3a2.41,2.41,0,0,0-2.4-1.5,2.76,2.76,0,0,0-2.8,2.9,2.82,2.82,0,0,0,2.8,2.9,2.51,2.51,0,0,0,2.4-1.5l1.1.3a3.45,3.45,0,0,1-3.5,2.3A4.15,4.15,0,0,1,204.3,85.7Z"/><path class="cls-3" d="M213.3,79.8a.79.79,0,0,1,.8-.8.8.8,0,1,1,0,1.6A.79.79,0,0,1,213.3,79.8Zm.2,2.2h1.2v7.5h-1.2Z"/><path class="cls-3" d="M216.5,85.7a3.87,3.87,0,0,1,4-3.9,3.78,3.78,0,0,1,3.9,3.9,4,4,0,0,1-7.9,0Zm6.8,0a2.82,2.82,0,0,0-2.8-2.9,2.76,2.76,0,0,0-2.8,2.9,2.8,2.8,0,1,0,5.6,0Z"/><path class="cls-3" d="M233.1,85v4.4H232V85.2c0-1.5-.7-2.4-2.1-2.4a2.5,2.5,0,0,0-2.5,2.8v3.8h-1.2V82h1.2v1.3a3.08,3.08,0,0,1,2.8-1.5C232,81.8,233.1,83,233.1,85Z"/><path class="cls-3" d="M234.8,85.7a3.7,3.7,0,0,1,3.8-3.9,3.62,3.62,0,0,1,3.8,3.8v.5H236a2.56,2.56,0,0,0,2.8,2.5,2.66,2.66,0,0,0,2.5-1.5l1.1.3a3.68,3.68,0,0,1-3.5,2.2A3.78,3.78,0,0,1,234.8,85.7Zm6.4-.5a2.42,2.42,0,0,0-2.6-2.4,2.64,2.64,0,0,0-2.7,2.4Z"/><path class="cls-3" d="M243.5,87.4l1.1-.3a2.45,2.45,0,0,0,2.4,1.6c1.1,0,1.9-.6,1.9-1.2s-.3-.9-1.1-1.1l-2.1-.6c-.9-.3-1.7-.8-1.7-1.8a2.5,2.5,0,0,1,2.7-2.1,3.33,3.33,0,0,1,3.2,1.9l-1,.3a2.27,2.27,0,0,0-2.1-1.2c-1,0-1.6.6-1.6,1.1s.4.7,1,.9l2.1.6c1,.3,1.8.8,1.8,2s-1.3,2.3-3,2.3C245.2,89.6,243.8,88.6,243.5,87.4Z"/><path class="cls-3" d="M8.8,100.3a3.39,3.39,0,0,1-3.5,3.4H2v3.7H.8V96.9H5.4A3.36,3.36,0,0,1,8.8,100.3Zm-1.1,0A2.26,2.26,0,0,0,5.4,98H2v4.6H5.4A2.26,2.26,0,0,0,7.7,100.3Z"/><path class="cls-3" d="M9.5,103.7a3.7,3.7,0,0,1,3.8-3.9,3.62,3.62,0,0,1,3.8,3.8v.5H10.7a2.56,2.56,0,0,0,2.8,2.5,2.66,2.66,0,0,0,2.5-1.5l1.1.3a3.68,3.68,0,0,1-3.5,2.2A3.78,3.78,0,0,1,9.5,103.7Zm6.5-.5a2.42,2.42,0,0,0-2.6-2.4,2.64,2.64,0,0,0-2.7,2.4Z"/><path class="cls-3" d="M26.3,96.5v10.9H25.1V106a3.29,3.29,0,0,1-3,1.6,3.9,3.9,0,0,1,0-7.8,3.56,3.56,0,0,1,3,1.5V96.5Zm-1.1,7.2a2.82,2.82,0,0,0-2.8-2.9,2.76,2.76,0,0,0-2.8,2.9,2.8,2.8,0,1,0,5.6,0Z"/><path class="cls-3" d="M28.1,103.7a3.76,3.76,0,0,1,3.8-3.9,3.56,3.56,0,0,1,3,1.5V100h1.2v7.5H34.9v-1.4a3.29,3.29,0,0,1-3,1.6A3.91,3.91,0,0,1,28.1,103.7Zm6.7,0a2.82,2.82,0,0,0-2.8-2.9,2.76,2.76,0,0,0-2.8,2.9,2.8,2.8,0,1,0,5.6,0Z"/><path class="cls-3" d="M45.6,100v7.2a3.49,3.49,0,0,1-3.7,3.6,3.85,3.85,0,0,1-3.6-2l1-.4a2.56,2.56,0,0,0,2.5,1.3,2.39,2.39,0,0,0,2.5-2.6v-1.3a3.3,3.3,0,0,1-2.9,1.4,3.74,3.74,0,0,1-3.8-3.8,3.68,3.68,0,0,1,3.8-3.8,3.3,3.3,0,0,1,2.9,1.4v-1Zm-1.2,3.6a2.65,2.65,0,0,0-2.8-2.7,2.71,2.71,0,0,0-2.8,2.7,2.65,2.65,0,0,0,2.8,2.7A2.71,2.71,0,0,0,44.4,103.6Z"/><path class="cls-3" d="M47.3,103.7a3.87,3.87,0,0,1,4-3.9,3.78,3.78,0,0,1,3.9,3.9,4,4,0,0,1-7.9,0Zm6.8,0a2.82,2.82,0,0,0-2.8-2.9,2.76,2.76,0,0,0-2.8,2.9,2.8,2.8,0,1,0,5.6,0Zm-2.3-7h1.3l-1.5,2H50.5Z"/><path class="cls-3" d="M64.4,100v7.2a3.49,3.49,0,0,1-3.7,3.6,3.85,3.85,0,0,1-3.6-2l1-.4a2.56,2.56,0,0,0,2.5,1.3,2.39,2.39,0,0,0,2.5-2.6v-1.3a3.3,3.3,0,0,1-2.9,1.4,3.74,3.74,0,0,1-3.8-3.8,3.68,3.68,0,0,1,3.8-3.8,3.3,3.3,0,0,1,2.9,1.4v-1Zm-1.1,3.6a2.65,2.65,0,0,0-2.8-2.7,2.71,2.71,0,0,0-2.8,2.7,2.65,2.65,0,0,0,2.8,2.7A2.78,2.78,0,0,0,63.3,103.6Z"/><path class="cls-3" d="M66.5,97.8a.79.79,0,0,1,.8-.8.8.8,0,0,1,0,1.6A.79.79,0,0,1,66.5,97.8Zm.2,2.2h1.2v7.5H66.7Z"/><path class="cls-3" d="M69.7,103.7a3.78,3.78,0,0,1,3.9-3.9,3.54,3.54,0,0,1,3.5,2.3l-1.1.3a2.41,2.41,0,0,0-2.4-1.5,2.76,2.76,0,0,0-2.8,2.9,2.82,2.82,0,0,0,2.8,2.9,2.51,2.51,0,0,0,2.4-1.5l1.1.3a3.45,3.45,0,0,1-3.5,2.3A4.08,4.08,0,0,1,69.7,103.7Z"/><path class="cls-3" d="M78.3,103.7a3.76,3.76,0,0,1,3.8-3.9,3.56,3.56,0,0,1,3,1.5V100h1.2v7.5H85.1v-1.4a3.29,3.29,0,0,1-3,1.6A4,4,0,0,1,78.3,103.7Zm6.8,0a2.82,2.82,0,0,0-2.8-2.9,2.76,2.76,0,0,0-2.8,2.9,2.8,2.8,0,1,0,5.6,0Z"/><path class="cls-3" d="M87.8,105.4l1.1-.3a2.45,2.45,0,0,0,2.4,1.6c1.1,0,1.9-.6,1.9-1.2s-.3-.9-1.1-1.1l-2.1-.6c-.9-.3-1.7-.8-1.7-1.8A2.5,2.5,0,0,1,91,99.9a3.33,3.33,0,0,1,3.2,1.9l-1,.3a2.27,2.27,0,0,0-2.1-1.2c-1,0-1.6.6-1.6,1.1s.4.7,1,.9l2.1.6c1,.3,1.8.8,1.8,2s-1.3,2.3-3,2.3A4,4,0,0,1,87.8,105.4Z"/><path class="cls-3" d="M99.9,102.3h5.3v1H99.9Z"/><path class="cls-3" d="M110.8,102.2a5.26,5.26,0,0,1,5.4-5.4,4.94,4.94,0,0,1,4.9,3.2l-1.2.3a3.9,3.9,0,0,0-3.8-2.3,4.35,4.35,0,0,0,0,8.7,4,4,0,0,0,3.8-2.3l1.1.3a4.94,4.94,0,0,1-4.9,3.2A5.77,5.77,0,0,1,110.8,102.2Z"/><path class="cls-3" d="M131,100.3a3.39,3.39,0,0,1-3.5,3.4h-3.4v3.7H123V96.9h4.6A3.36,3.36,0,0,1,131,100.3Zm-1.1,0a2.26,2.26,0,0,0-2.3-2.3h-3.4v4.6h3.4A2.26,2.26,0,0,0,129.9,100.3Z"/><path class="cls-3" d="M133.8,98v3.5h5.4v1.1h-5.4v3.7H140v1.1h-7.4V96.9H140V98Z"/><path class="cls-3" d="M141.9,96.9h1.2v10.5h-1.2Z"/><path class="cls-3" d="M153.5,100.3a3.39,3.39,0,0,1-3.5,3.4h-3.4v3.7h-1.2V96.9H150A3.45,3.45,0,0,1,153.5,100.3Zm-1.2,0A2.26,2.26,0,0,0,150,98h-3.4v4.6H150A2.26,2.26,0,0,0,152.3,100.3Z"/><path class="cls-3" d="M11.4,114.9v10.5h-2v-6.9L6,123.2l-3.3-4.6v6.9H.6V115h2L6,120l3.4-5h2Z"/><path class="cls-3" d="M13.2,115.6a1.2,1.2,0,0,1,2.4,0,1.2,1.2,0,0,1-2.4,0Zm.2,2.3h2v7.6h-2Z"/><path class="cls-3" d="M24.7,121v4.4h-2v-4.1c0-1.2-.5-1.9-1.6-1.9s-1.8.9-1.8,2.2v3.8h-2v-7.6h2v1a2.84,2.84,0,0,1,2.4-1.2C23.7,117.6,24.7,119,24.7,121Z"/><path class="cls-3" d="M26.4,115.6a1.2,1.2,0,0,1,2.4,0,1.16,1.16,0,0,1-1.2,1.2A1.22,1.22,0,0,1,26.4,115.6Zm.2,2.3h2v7.6h-2Z"/><path class="cls-3" d="M29.9,123.3l1.8-.5a2.13,2.13,0,0,0,2,1.3c.8,0,1.3-.4,1.3-.8s-.3-.6-.8-.8l-1.9-.6c-1.1-.3-1.9-.9-1.9-2,0-1.3,1.4-2.3,3-2.3a3.64,3.64,0,0,1,3.4,1.9L35,120a1.77,1.77,0,0,0-1.6-.9c-.6,0-1.1.3-1.1.7s.2.5.6.6l1.9.5c1.1.3,2.1.8,2.1,2.2s-1.4,2.5-3.3,2.5A3.58,3.58,0,0,1,29.9,123.3Z"/><path class="cls-3" d="M43,125.2a5.26,5.26,0,0,1-1.8.4c-1.7,0-2.5-1.1-2.5-2.7v-3.3H37.4v-1.7h1.3v-2.5h2v2.5h2.2v1.7H40.7v3.3c0,.6.3,1,.9,1a2.92,2.92,0,0,0,.9-.2Z"/><path class="cls-3" d="M43.6,121.6a3.83,3.83,0,0,1,4-4,3.67,3.67,0,0,1,3.9,3.9v.7H45.6c.1,1,.8,1.7,2.2,1.7a1.78,1.78,0,0,0,1.8-1l1.8.5a3.93,3.93,0,0,1-3.7,2.2A3.81,3.81,0,0,1,43.6,121.6Zm5.9-.6a2,2,0,0,0-4,0Z"/><path class="cls-3" d="M57.4,117.7v1.9c-1.6-.3-2.5.5-2.5,2.5v3.3h-2v-7.6h2v1.1A2.5,2.5,0,0,1,57.4,117.7Z"/><path class="cls-3" d="M58.5,115.6a1.2,1.2,0,0,1,2.4,0,1.2,1.2,0,0,1-2.4,0Zm.2,2.3h2v7.6h-2Z"/><path class="cls-3" d="M62.2,121.6a3.91,3.91,0,0,1,4.1-4,3.83,3.83,0,0,1,4,4,3.89,3.89,0,0,1-4,4A4,4,0,0,1,62.2,121.6Zm6.2,0a2.08,2.08,0,0,0-2.1-2.2,2,2,0,0,0-2.1,2.2,2.08,2.08,0,0,0,2.1,2.2A2,2,0,0,0,68.4,121.6Z"/><path class="cls-3" d="M83.2,114.5v10.9h-2v-.9a2.9,2.9,0,0,1-2.4,1.1,3.85,3.85,0,0,1-3.8-4,3.79,3.79,0,0,1,3.8-4,2.78,2.78,0,0,1,2.4,1.1v-4.3h2Zm-1.9,7.1a2.16,2.16,0,0,0-2.2-2.2,2.2,2.2,0,0,0,0,4.4A2,2,0,0,0,81.3,121.6Z"/><path class="cls-3" d="M84.7,121.6a3.83,3.83,0,0,1,4-4,3.67,3.67,0,0,1,3.9,3.9v.7H86.7c.1,1,.8,1.7,2.2,1.7a1.78,1.78,0,0,0,1.8-1l1.8.5a3.93,3.93,0,0,1-3.7,2.2A3.81,3.81,0,0,1,84.7,121.6Zm6-.6a2,2,0,0,0-4,0Z"/><path class="cls-3" d="M99.8,116.8v2.4h5V121h-5v2.6h5.7v1.9H97.8V115h7.7v1.9H99.8Z"/><path class="cls-3" d="M114.7,114.5v10.9h-2v-.9a2.9,2.9,0,0,1-2.4,1.1,3.85,3.85,0,0,1-3.8-4,3.79,3.79,0,0,1,3.8-4,2.78,2.78,0,0,1,2.4,1.1v-4.3h2Zm-1.9,7.1a2.16,2.16,0,0,0-2.2-2.2,2.2,2.2,0,0,0,0,4.4A2.1,2.1,0,0,0,112.8,121.6Z"/><path class="cls-3" d="M124,117.9v7.6h-2v-1a2.84,2.84,0,0,1-2.4,1.2c-2,0-3-1.3-3-3.4v-4.4h2v4c0,1.2.5,1.9,1.6,1.9s1.8-.9,1.8-2.2v-3.7Z"/><path class="cls-3" d="M125.5,121.6a3.89,3.89,0,0,1,4-4,3.65,3.65,0,0,1,3.7,2.5l-1.8.5a2,2,0,0,0-1.9-1.3,2.2,2.2,0,0,0,0,4.4,2,2,0,0,0,1.9-1.2l1.8.5a3.65,3.65,0,0,1-3.7,2.5A3.7,3.7,0,0,1,125.5,121.6Z"/><path class="cls-3" d="M134.2,121.6a3.79,3.79,0,0,1,3.8-4,2.78,2.78,0,0,1,2.4,1.1v-.9h2v7.6h-2v-.9a2.9,2.9,0,0,1-2.4,1.1A3.79,3.79,0,0,1,134.2,121.6Zm6.3,0a2.16,2.16,0,0,0-2.2-2.2,2.2,2.2,0,0,0,0,4.4A2.1,2.1,0,0,0,140.5,121.6Z"/><path class="cls-3" d="M143.9,121.6a3.89,3.89,0,0,1,4-4,3.65,3.65,0,0,1,3.7,2.5l-1.8.5a2,2,0,0,0-1.9-1.3,2.2,2.2,0,0,0,0,4.4,2,2,0,0,0,1.9-1.2l1.8.5a3.65,3.65,0,0,1-3.7,2.5A3.7,3.7,0,0,1,143.9,121.6Z"/><path class="cls-3" d="M152.9,115.6a1.2,1.2,0,0,1,2.4,0,1.2,1.2,0,0,1-2.4,0Zm.1,2.3h2v7.6h-2Z"/><path class="cls-3" d="M156.5,121.6a3.91,3.91,0,0,1,4.1-4,3.83,3.83,0,0,1,4,4,3.89,3.89,0,0,1-4,4A4,4,0,0,1,156.5,121.6Zm6.2,0a2.08,2.08,0,0,0-2.1-2.2,2,2,0,0,0-2.1,2.2,2.08,2.08,0,0,0,2.1,2.2A2,2,0,0,0,162.7,121.6Zm-2-7h2.2l-1.6,2.1h-1.7Z"/><path class="cls-3" d="M173.6,121v4.4h-2v-4.1c0-1.2-.5-1.9-1.6-1.9s-1.8.9-1.8,2.2v3.8h-2v-7.6h2v1a2.84,2.84,0,0,1,2.4-1.2C172.6,117.6,173.6,119,173.6,121Z"/></svg>